<svg width="500" height="600" viewBox="0 0 500 600" fill="none" xmlns="http://www.w3.org/2000/svg">
<path d="M472.5 62.417V572.5H27.5V62.417L250 27.5908L472.5 62.417Z" fill="white" stroke="#FF5E5E" stroke-width="15"/>
<path d="M458 73.2217V558H42V73.2217L250 42.0215L458 73.2217Z" stroke="#FF5E5E" stroke-width="4"/>
<rect x="40" y="550" width="420" height="10" fill="#FF5E5E"/>
<path d="M124.88 192.04C124.827 192.467 124.747 193.133 124.64 194.04C124.533 194.893 124.427 195.773 124.32 196.68C124.267 197.533 124.213 198.307 124.16 199C124.053 200.547 123.947 202.253 123.84 204.12C123.787 205.933 123.733 207.827 123.68 209.8C123.627 211.72 123.573 213.667 123.52 215.64C123.52 217.613 123.52 219.533 123.52 221.4C123.52 223.587 123.547 226.013 123.6 228.68C123.653 231.293 123.707 233.907 123.76 236.52C123.867 239.08 123.92 241.427 123.92 243.56C123.973 245.693 124 247.347 124 248.52C124 251.827 123.627 254.387 122.88 256.2C122.187 258.013 121.173 259.267 119.84 259.96C118.507 260.707 116.96 261.08 115.2 261.08C113.28 261.08 111.227 260.68 109.04 259.88C106.853 259.133 104.8 258.067 102.88 256.68C101.013 255.293 99.4667 253.693 98.24 251.88C97.0667 250.013 96.48 248.013 96.48 245.88C96.48 243.32 97.44 240.787 99.36 238.28C101.333 235.72 103.92 233.373 107.12 231.24C110.373 229.107 113.867 227.4 117.6 226.12C121.173 224.787 124.853 223.827 128.64 223.24C132.427 222.6 135.84 222.28 138.88 222.28C142.987 222.28 146.693 222.973 150 224.36C153.307 225.693 155.947 227.667 157.92 230.28C159.893 232.893 160.88 236.04 160.88 239.72C160.88 242.813 160.293 245.667 159.12 248.28C157.947 250.893 156.053 253.16 153.44 255.08C150.88 256.947 147.467 258.413 143.2 259.48C141.387 259.853 139.573 260.12 137.76 260.28C136 260.493 134.32 260.653 132.72 260.76L129.04 250.44C130.853 250.44 132.587 250.413 134.24 250.36C135.947 250.253 137.493 250.093 138.88 249.88C141.067 249.453 143.04 248.813 144.8 247.96C146.56 247.107 147.947 245.987 148.96 244.6C149.973 243.213 150.48 241.56 150.48 239.64C150.48 237.827 149.973 236.28 148.96 235C148 233.72 146.64 232.733 144.88 232.04C143.12 231.347 141.067 231 138.72 231C135.36 231 131.947 231.347 128.48 232.04C125.067 232.733 121.787 233.693 118.64 234.92C116.293 235.827 114.187 236.893 112.32 238.12C110.453 239.293 108.987 240.52 107.92 241.8C106.853 243.08 106.32 244.307 106.32 245.48C106.32 246.12 106.507 246.733 106.88 247.32C107.307 247.853 107.84 248.333 108.48 248.76C109.12 249.187 109.76 249.533 110.4 249.8C111.093 250.013 111.68 250.12 112.16 250.12C112.907 250.12 113.52 249.907 114 249.48C114.48 249 114.72 248.093 114.72 246.76C114.72 245.32 114.667 243.267 114.56 240.6C114.507 237.88 114.427 234.867 114.32 231.56C114.267 228.253 114.24 224.973 114.24 221.72C114.24 219.48 114.24 217.213 114.24 214.92C114.293 212.627 114.32 210.44 114.32 208.36C114.32 206.28 114.32 204.44 114.32 202.84C114.373 201.24 114.4 199.987 114.4 199.08C114.4 198.493 114.373 197.747 114.32 196.84C114.267 195.933 114.187 195.027 114.08 194.12C114.027 193.16 113.947 192.467 113.84 192.04H124.88ZM147.68 200.68C149.707 201.64 151.973 202.813 154.48 204.2C157.04 205.587 159.467 206.973 161.76 208.36C164.107 209.693 165.973 210.893 167.36 211.96L162.56 220.12C161.547 219.267 160.213 218.307 158.56 217.24C156.96 216.173 155.2 215.08 153.28 213.96C151.413 212.84 149.6 211.8 147.84 210.84C146.08 209.827 144.56 209.027 143.28 208.44L147.68 200.68ZM98.64 205.08C100.987 205.347 103.04 205.533 104.8 205.64C106.613 205.693 108.24 205.72 109.68 205.72C111.76 205.72 114.053 205.64 116.56 205.48C119.067 205.267 121.627 205 124.24 204.68C126.853 204.307 129.387 203.88 131.84 203.4C134.347 202.92 136.613 202.387 138.64 201.8L138.88 211.72C136.64 212.253 134.213 212.733 131.6 213.16C128.987 213.533 126.347 213.88 123.68 214.2C121.067 214.52 118.56 214.76 116.16 214.92C113.813 215.08 111.76 215.16 110 215.16C107.333 215.16 105.147 215.133 103.44 215.08C101.733 215.027 100.187 214.92 98.8 214.76L98.64 205.08ZM187.04 196.44C188.16 196.547 189.333 196.653 190.56 196.76C191.84 196.813 192.907 196.84 193.76 196.84C194.933 196.84 196.267 196.813 197.76 196.76C199.307 196.707 200.88 196.653 202.48 196.6C204.08 196.547 205.6 196.467 207.04 196.36C208.48 196.253 209.653 196.173 210.56 196.12C211.52 196.067 212.48 195.933 213.44 195.72C214.453 195.507 215.307 195.267 216 195L222.4 199.96C221.867 200.6 221.36 201.187 220.88 201.72C220.4 202.2 220 202.733 219.68 203.32C218.773 204.813 217.733 206.867 216.56 209.48C215.387 212.04 214.133 214.813 212.8 217.8C211.52 220.787 210.267 223.693 209.04 226.52C208.24 228.333 207.413 230.253 206.56 232.28C205.707 234.307 204.827 236.333 203.92 238.36C203.013 240.333 202.133 242.2 201.28 243.96C200.427 245.667 199.6 247.16 198.8 248.44C197.2 250.84 195.413 252.627 193.44 253.8C191.467 254.92 189.093 255.48 186.32 255.48C182.8 255.48 179.867 254.333 177.52 252.04C175.173 249.747 174 246.573 174 242.52C174 239.32 174.72 236.333 176.16 233.56C177.6 230.787 179.627 228.387 182.24 226.36C184.907 224.28 188.027 222.68 191.6 221.56C195.173 220.44 199.093 219.88 203.36 219.88C208 219.88 212.48 220.413 216.8 221.48C221.12 222.547 225.147 223.907 228.88 225.56C232.667 227.213 236.053 228.947 239.04 230.76C242.08 232.52 244.667 234.12 246.8 235.56L242.08 246.68C239.68 244.44 236.987 242.28 234 240.2C231.013 238.12 227.813 236.227 224.4 234.52C221.04 232.76 217.44 231.373 213.6 230.36C209.813 229.347 205.867 228.84 201.76 228.84C197.867 228.84 194.533 229.453 191.76 230.68C189.04 231.907 186.96 233.453 185.52 235.32C184.08 237.133 183.36 239.027 183.36 241C183.36 242.28 183.68 243.267 184.32 243.96C185.013 244.653 185.813 245 186.72 245C187.573 245 188.293 244.787 188.88 244.36C189.467 243.933 190.133 243.213 190.88 242.2C191.573 241.24 192.24 240.093 192.88 238.76C193.573 237.427 194.267 235.96 194.96 234.36C195.707 232.76 196.427 231.133 197.12 229.48C197.867 227.827 198.587 226.227 199.28 224.68C200.24 222.547 201.227 220.333 202.24 218.04C203.253 215.693 204.213 213.427 205.12 211.24C206.08 209.053 206.96 207.133 207.76 205.48C206.96 205.533 205.973 205.587 204.8 205.64C203.627 205.64 202.373 205.667 201.04 205.72C199.76 205.773 198.48 205.853 197.2 205.96C195.973 206.013 194.907 206.067 194 206.12C193.2 206.173 192.16 206.253 190.88 206.36C189.653 206.467 188.533 206.6 187.52 206.76L187.04 196.44ZM239.76 215.4C239.44 221.053 238.853 226.253 238 231C237.2 235.693 235.893 239.987 234.08 243.88C232.32 247.72 229.893 251.213 226.8 254.36C223.707 257.453 219.76 260.253 214.96 262.76L206.48 255.8C211.387 253.667 215.307 251.213 218.24 248.44C221.227 245.667 223.467 242.76 224.96 239.72C226.507 236.68 227.573 233.72 228.16 230.84C228.747 227.907 229.12 225.267 229.28 222.92C229.387 221.373 229.44 219.853 229.44 218.36C229.44 216.813 229.387 215.427 229.28 214.2L239.76 215.4ZM308.72 199.32C307.44 200.227 306.187 201.187 304.96 202.2C303.733 203.16 302.667 204.04 301.76 204.84C300.427 205.853 298.827 207.107 296.96 208.6C295.147 210.04 293.227 211.56 291.2 213.16C289.227 214.707 287.307 216.227 285.44 217.72C283.573 219.213 281.973 220.547 280.64 221.72C279.253 222.947 278.32 223.96 277.84 224.76C277.36 225.507 277.36 226.253 277.84 227C278.373 227.747 279.36 228.76 280.8 230.04C281.973 231.053 283.467 232.307 285.28 233.8C287.147 235.293 289.147 236.947 291.28 238.76C293.467 240.52 295.68 242.36 297.92 244.28C300.213 246.147 302.4 248.013 304.48 249.88C306.613 251.693 308.507 253.4 310.16 255L300.8 263.56C298.56 261.053 296.24 258.573 293.84 256.12C292.613 254.893 291.013 253.4 289.04 251.64C287.12 249.827 285.013 247.933 282.72 245.96C280.48 243.987 278.24 242.04 276 240.12C273.76 238.147 271.733 236.387 269.92 234.84C267.253 232.6 265.52 230.547 264.72 228.68C263.973 226.813 264.08 224.973 265.04 223.16C266.053 221.293 267.893 219.267 270.56 217.08C272.16 215.853 273.973 214.413 276 212.76C278.027 211.053 280.107 209.32 282.24 207.56C284.373 205.747 286.4 204.013 288.32 202.36C290.24 200.653 291.867 199.16 293.2 197.88C294.373 196.707 295.547 195.507 296.72 194.28C297.893 193.053 298.773 191.987 299.36 191.08L308.72 199.32ZM379.12 200.44C379.867 201.56 380.693 202.893 381.6 204.44C382.56 205.933 383.493 207.48 384.4 209.08C385.307 210.627 386.053 212.04 386.64 213.32L379.52 216.44C378.72 214.733 377.92 213.16 377.12 211.72C376.373 210.227 375.6 208.813 374.8 207.48C374.053 206.093 373.173 204.733 372.16 203.4L379.12 200.44ZM389.84 196.04C390.64 197.107 391.52 198.413 392.48 199.96C393.44 201.453 394.373 202.973 395.28 204.52C396.24 206.013 397.013 207.373 397.6 208.6L390.64 211.96C389.84 210.253 389.013 208.707 388.16 207.32C387.36 205.88 386.533 204.493 385.68 203.16C384.88 201.827 383.973 200.52 382.96 199.24L389.84 196.04ZM358.48 194.04C358.213 195.747 358 197.56 357.84 199.48C357.68 201.347 357.547 203.08 357.44 204.68C357.333 206.813 357.227 209.453 357.12 212.6C357.013 215.693 356.907 218.973 356.8 222.44C356.693 225.853 356.587 229.213 356.48 232.52C356.427 235.773 356.4 238.653 356.4 241.16C356.4 243.827 356.88 245.96 357.84 247.56C358.853 249.107 360.187 250.227 361.84 250.92C363.547 251.56 365.44 251.88 367.52 251.88C370.773 251.88 373.76 251.453 376.48 250.6C379.253 249.693 381.733 248.493 383.92 247C386.16 245.453 388.187 243.693 390 241.72C391.813 239.747 393.44 237.667 394.88 235.48L402.16 244.36C400.827 246.28 399.12 248.307 397.04 250.44C394.96 252.573 392.48 254.573 389.6 256.44C386.773 258.307 383.493 259.8 379.76 260.92C376.027 262.093 371.893 262.68 367.36 262.68C363.04 262.68 359.253 262.013 356 260.68C352.747 259.347 350.24 257.267 348.48 254.44C346.72 251.56 345.84 247.853 345.84 243.32C345.84 241.133 345.867 238.653 345.92 235.88C345.973 233.053 346.027 230.12 346.08 227.08C346.187 224.04 346.267 221.08 346.32 218.2C346.373 215.267 346.427 212.627 346.48 210.28C346.533 207.88 346.56 206.013 346.56 204.68C346.56 202.76 346.48 200.893 346.32 199.08C346.16 197.213 345.92 195.48 345.6 193.88L358.48 194.04Z" fill="#FF5E5E"/>
<path d="M196.56 291.32C196.009 292.12 195.351 292.947 194.587 293.8C193.822 294.636 192.978 295.48 192.053 296.333C191.147 297.169 190.178 297.978 189.147 298.76C188.133 299.524 187.076 300.227 185.973 300.867C185.849 300.618 185.671 300.333 185.44 300.013C185.209 299.693 184.96 299.382 184.693 299.08C184.444 298.778 184.196 298.52 183.947 298.307C185.084 297.684 186.196 296.973 187.28 296.173C188.364 295.356 189.378 294.484 190.32 293.56C191.28 292.636 192.142 291.72 192.907 290.813C193.671 289.889 194.302 289.009 194.8 288.173H198.027C198.756 289.204 199.556 290.209 200.427 291.187C201.316 292.147 202.249 293.053 203.227 293.907C204.222 294.76 205.244 295.533 206.293 296.227C207.36 296.92 208.418 297.516 209.467 298.013C209.058 298.404 208.676 298.849 208.32 299.347C207.964 299.844 207.644 300.342 207.36 300.84C206.329 300.236 205.298 299.551 204.267 298.787C203.253 298.022 202.258 297.222 201.28 296.387C200.32 295.533 199.431 294.68 198.613 293.827C197.813 292.956 197.129 292.12 196.56 291.32ZM190.933 296.52H202.293V299.48H190.933V296.52ZM187.253 302.013H202.693V305.053H187.253V302.013ZM202.16 302.013H202.64L203.2 301.88L205.76 302.6C205.316 303.702 204.818 304.884 204.267 306.147C203.716 307.391 203.147 308.644 202.56 309.907C201.991 311.151 201.422 312.342 200.853 313.48L197.44 312.547C197.867 311.711 198.302 310.831 198.747 309.907C199.209 308.964 199.653 308.031 200.08 307.107C200.507 306.182 200.898 305.311 201.253 304.493C201.627 303.676 201.929 302.973 202.16 302.387V302.013ZM216.613 288.227L219.893 289.08C219.413 290.396 218.844 291.684 218.187 292.947C217.547 294.209 216.844 295.382 216.08 296.467C215.333 297.533 214.56 298.467 213.76 299.267C213.547 299.089 213.271 298.867 212.933 298.6C212.596 298.316 212.249 298.049 211.893 297.8C211.556 297.551 211.253 297.347 210.987 297.187C211.804 296.493 212.569 295.676 213.28 294.733C213.991 293.773 214.631 292.742 215.2 291.64C215.769 290.52 216.24 289.382 216.613 288.227ZM217.2 291.267H234.16V294.36H215.653L217.2 291.267ZM215.307 297.587H233.52V300.573H218.507V306.173H215.307V297.587ZM211.067 304.6H235.6V307.667H211.067V304.6ZM223.147 292.867H226.453V313.4H223.147V292.867ZM252.427 292.733C252.249 294.084 252.018 295.524 251.733 297.053C251.449 298.582 251.067 300.129 250.587 301.693C250.071 303.489 249.467 305.036 248.773 306.333C248.08 307.631 247.316 308.636 246.48 309.347C245.662 310.04 244.764 310.387 243.787 310.387C242.809 310.387 241.902 310.058 241.067 309.4C240.249 308.724 239.591 307.8 239.093 306.627C238.613 305.453 238.373 304.12 238.373 302.627C238.373 301.08 238.684 299.622 239.307 298.253C239.929 296.884 240.791 295.676 241.893 294.627C243.013 293.56 244.311 292.724 245.787 292.12C247.28 291.516 248.889 291.213 250.613 291.213C252.267 291.213 253.751 291.48 255.067 292.013C256.4 292.547 257.538 293.284 258.48 294.227C259.422 295.169 260.142 296.271 260.64 297.533C261.138 298.796 261.387 300.156 261.387 301.613C261.387 303.48 261.004 305.151 260.24 306.627C259.476 308.102 258.338 309.32 256.827 310.28C255.333 311.24 253.467 311.898 251.227 312.253L249.227 309.08C249.742 309.027 250.196 308.964 250.587 308.893C250.978 308.822 251.351 308.742 251.707 308.653C252.56 308.44 253.351 308.138 254.08 307.747C254.827 307.338 255.476 306.84 256.027 306.253C256.578 305.649 257.004 304.947 257.307 304.147C257.627 303.347 257.787 302.467 257.787 301.507C257.787 300.458 257.627 299.498 257.307 298.627C256.987 297.756 256.516 297 255.893 296.36C255.271 295.702 254.516 295.204 253.627 294.867C252.738 294.511 251.716 294.333 250.56 294.333C249.138 294.333 247.884 294.591 246.8 295.107C245.716 295.604 244.8 296.253 244.053 297.053C243.307 297.853 242.738 298.716 242.347 299.64C241.973 300.564 241.787 301.444 241.787 302.28C241.787 303.169 241.893 303.916 242.107 304.52C242.32 305.107 242.578 305.551 242.88 305.853C243.2 306.138 243.538 306.28 243.893 306.28C244.267 306.28 244.631 306.093 244.987 305.72C245.36 305.329 245.724 304.742 246.08 303.96C246.436 303.178 246.791 302.191 247.147 301C247.556 299.72 247.902 298.351 248.187 296.893C248.471 295.436 248.676 294.013 248.8 292.627L252.427 292.733ZM270.427 298.733V308.573H267.36V301.693H264.347V298.733H270.427ZM270.427 307.293C270.942 308.182 271.671 308.84 272.613 309.267C273.556 309.676 274.702 309.907 276.053 309.96C276.853 309.996 277.813 310.022 278.933 310.04C280.071 310.04 281.253 310.031 282.48 310.013C283.724 309.996 284.933 309.969 286.107 309.933C287.298 309.88 288.364 309.809 289.307 309.72C289.182 309.951 289.049 310.262 288.907 310.653C288.782 311.027 288.658 311.409 288.533 311.8C288.427 312.191 288.347 312.538 288.293 312.84C287.476 312.893 286.533 312.929 285.467 312.947C284.4 312.964 283.298 312.973 282.16 312.973C281.022 312.991 279.92 312.991 278.853 312.973C277.787 312.973 276.844 312.956 276.027 312.92C274.427 312.849 273.067 312.591 271.947 312.147C270.827 311.702 269.867 310.964 269.067 309.933C268.551 310.467 268 310.991 267.413 311.507C266.844 312.04 266.222 312.591 265.547 313.16L264.027 309.987C264.596 309.613 265.191 309.196 265.813 308.733C266.453 308.271 267.067 307.791 267.653 307.293H270.427ZM264.453 290.84L266.88 289.027C267.396 289.418 267.929 289.862 268.48 290.36C269.031 290.858 269.538 291.356 270 291.853C270.462 292.351 270.836 292.822 271.12 293.267L268.48 295.293C268.231 294.849 267.884 294.369 267.44 293.853C267.013 293.32 266.533 292.796 266 292.28C265.467 291.747 264.951 291.267 264.453 290.84ZM278.4 291.933H281.493V309.347H278.4V291.933ZM275.68 301.293V302.36H284.32V301.293H275.68ZM275.68 298.44V299.48H284.32V298.44H275.68ZM272.96 296.467H287.2V304.333H272.96V296.467ZM271.68 289.187H288.507V292.84H285.547V291.453H274.48V292.84H271.68V289.187ZM272.427 293.293H287.627V295.48H272.427V293.293ZM271.44 305.293H288.8V307.613H271.44V305.293ZM295.787 297.053H298.693V302.6L295.787 302.787V297.053ZM291.307 292.52H303.36V294.547H291.307V292.52ZM292.16 289.693H302.427V291.587H292.16V289.693ZM295.787 288.333H298.693V293.827H295.787V288.333ZM291.147 301.56C292.142 301.524 293.271 301.48 294.533 301.427C295.813 301.356 297.164 301.284 298.587 301.213C300.009 301.124 301.431 301.036 302.853 300.947V303.053C301.467 303.142 300.08 303.231 298.693 303.32C297.324 303.409 296.009 303.498 294.747 303.587C293.484 303.658 292.338 303.738 291.307 303.827L291.147 301.56ZM294.267 294.12L296.533 294.253C296.284 295.267 295.787 296.093 295.04 296.733C294.311 297.373 293.36 297.853 292.187 298.173C292.08 297.942 291.902 297.64 291.653 297.267C291.422 296.876 291.2 296.564 290.987 296.333C291.858 296.156 292.587 295.898 293.173 295.56C293.76 295.204 294.124 294.724 294.267 294.12ZM297.84 293.613H300.213V295.24C300.213 295.507 300.231 295.667 300.267 295.72C300.302 295.773 300.382 295.8 300.507 295.8C300.542 295.8 300.596 295.8 300.667 295.8C300.756 295.8 300.844 295.8 300.933 295.8C301.022 295.8 301.084 295.8 301.12 295.8C301.28 295.8 301.387 295.747 301.44 295.64C301.493 295.516 301.538 295.258 301.573 294.867C301.787 295.009 302.08 295.142 302.453 295.267C302.827 295.391 303.156 295.48 303.44 295.533C303.369 296.262 303.173 296.769 302.853 297.053C302.551 297.32 302.089 297.453 301.467 297.453C301.36 297.453 301.218 297.453 301.04 297.453C300.862 297.453 300.684 297.453 300.507 297.453C300.347 297.453 300.204 297.453 300.08 297.453C299.458 297.453 298.987 297.391 298.667 297.267C298.347 297.124 298.124 296.893 298 296.573C297.893 296.253 297.84 295.809 297.84 295.24V293.613ZM292.213 298.227H302.453V300.147H292.213V298.227ZM293.013 305.027H310.987V307.427H293.013V305.027ZM310.347 305.027H313.627C313.627 305.027 313.618 305.098 313.6 305.24C313.582 305.382 313.564 305.551 313.547 305.747C313.547 305.924 313.529 306.084 313.493 306.227C313.369 307.436 313.227 308.458 313.067 309.293C312.907 310.129 312.729 310.796 312.533 311.293C312.338 311.791 312.116 312.164 311.867 312.413C311.529 312.733 311.173 312.956 310.8 313.08C310.427 313.204 309.991 313.284 309.493 313.32C309.067 313.373 308.516 313.4 307.84 313.4C307.164 313.4 306.444 313.382 305.68 313.347C305.662 312.92 305.564 312.431 305.387 311.88C305.209 311.347 304.996 310.884 304.747 310.493C305.44 310.564 306.107 310.609 306.747 310.627C307.387 310.644 307.849 310.653 308.133 310.653C308.382 310.653 308.587 310.644 308.747 310.627C308.907 310.591 309.049 310.511 309.173 310.387C309.351 310.262 309.502 310.004 309.627 309.613C309.769 309.222 309.893 308.689 310 308.013C310.124 307.32 310.231 306.449 310.32 305.4L310.347 305.027ZM301.547 303.667H304.8C304.676 304.751 304.48 305.747 304.213 306.653C303.964 307.56 303.582 308.378 303.067 309.107C302.569 309.818 301.893 310.449 301.04 311C300.187 311.569 299.093 312.049 297.76 312.44C296.427 312.849 294.8 313.187 292.88 313.453C292.791 313.062 292.596 312.609 292.293 312.093C291.991 311.596 291.707 311.187 291.44 310.867C293.147 310.671 294.578 310.431 295.733 310.147C296.889 309.862 297.822 309.524 298.533 309.133C299.262 308.724 299.822 308.262 300.213 307.747C300.622 307.213 300.924 306.609 301.12 305.933C301.316 305.258 301.458 304.502 301.547 303.667ZM303.227 297.027L304.507 295C305.253 295.284 306.036 295.64 306.853 296.067C307.689 296.493 308.462 296.938 309.173 297.4C309.902 297.844 310.489 298.28 310.933 298.707L309.573 301C309.147 300.573 308.578 300.12 307.867 299.64C307.173 299.142 306.418 298.662 305.6 298.2C304.782 297.738 303.991 297.347 303.227 297.027ZM303.867 291.24H311.84V293.773H303.867V291.24ZM310.747 291.24H313.573C313.556 292.627 313.547 293.933 313.547 295.16C313.547 296.387 313.564 297.471 313.6 298.413C313.636 299.338 313.698 300.076 313.787 300.627C313.893 301.16 314.027 301.427 314.187 301.427C314.347 301.427 314.444 301.133 314.48 300.547C314.533 299.96 314.569 299.222 314.587 298.333C314.853 298.653 315.138 298.991 315.44 299.347C315.76 299.684 316.053 299.96 316.32 300.173C316.213 301.524 316 302.529 315.68 303.187C315.378 303.844 314.8 304.173 313.947 304.173C313.164 304.173 312.551 303.844 312.107 303.187C311.68 302.511 311.369 301.587 311.173 300.413C310.978 299.222 310.853 297.844 310.8 296.28C310.764 294.716 310.747 293.036 310.747 291.24ZM306.453 288.333H309.147C309.129 290.2 309.058 291.916 308.933 293.48C308.827 295.027 308.613 296.431 308.293 297.693C307.991 298.956 307.52 300.076 306.88 301.053C306.258 302.031 305.422 302.876 304.373 303.587C304.213 303.284 303.964 302.929 303.627 302.52C303.289 302.111 302.969 301.8 302.667 301.587C303.556 300.964 304.249 300.244 304.747 299.427C305.262 298.591 305.636 297.631 305.867 296.547C306.098 295.444 306.24 294.218 306.293 292.867C306.364 291.516 306.418 290.004 306.453 288.333Z" fill="#FF5E5E"/>
</svg>
