<svg width="500" height="600" viewBox="0 0 500 600" fill="none" xmlns="http://www.w3.org/2000/svg">
<path d="M472.5 62.417V572.5H27.5V62.417L250 27.5908L472.5 62.417Z" fill="white" stroke="#FF5E5E" stroke-width="15"/>
<path d="M458 73.2217V558H42V73.2217L250 42.0215L458 73.2217Z" stroke="#FF5E5E" stroke-width="4"/>
<path d="M42 196H458.5" stroke="#FF5E5E" stroke-width="4"/>
<path d="M191.82 163.3C191.687 164.313 191.513 165.393 191.3 166.54C191.087 167.687 190.8 168.847 190.44 170.02C190.053 171.367 189.6 172.527 189.08 173.5C188.56 174.473 187.987 175.227 187.36 175.76C186.747 176.28 186.073 176.54 185.34 176.54C184.607 176.54 183.927 176.293 183.3 175.8C182.687 175.293 182.193 174.6 181.82 173.72C181.46 172.84 181.28 171.84 181.28 170.72C181.28 169.56 181.513 168.467 181.98 167.44C182.447 166.413 183.093 165.507 183.92 164.72C184.76 163.92 185.733 163.293 186.84 162.84C187.96 162.387 189.167 162.16 190.46 162.16C191.7 162.16 192.813 162.36 193.8 162.76C194.8 163.16 195.653 163.713 196.36 164.42C197.067 165.127 197.607 165.953 197.98 166.9C198.353 167.847 198.54 168.867 198.54 169.96C198.54 171.36 198.253 172.613 197.68 173.72C197.107 174.827 196.253 175.74 195.12 176.46C194 177.18 192.6 177.673 190.92 177.94L189.42 175.56C189.807 175.52 190.147 175.473 190.44 175.42C190.733 175.367 191.013 175.307 191.28 175.24C191.92 175.08 192.513 174.853 193.06 174.56C193.62 174.253 194.107 173.88 194.52 173.44C194.933 172.987 195.253 172.46 195.48 171.86C195.72 171.26 195.84 170.6 195.84 169.88C195.84 169.093 195.72 168.373 195.48 167.72C195.24 167.067 194.887 166.5 194.42 166.02C193.953 165.527 193.387 165.153 192.72 164.9C192.053 164.633 191.287 164.5 190.42 164.5C189.353 164.5 188.413 164.693 187.6 165.08C186.787 165.453 186.1 165.94 185.54 166.54C184.98 167.14 184.553 167.787 184.26 168.48C183.98 169.173 183.84 169.833 183.84 170.46C183.84 171.127 183.92 171.687 184.08 172.14C184.24 172.58 184.433 172.913 184.66 173.14C184.9 173.353 185.153 173.46 185.42 173.46C185.7 173.46 185.973 173.32 186.24 173.04C186.52 172.747 186.793 172.307 187.06 171.72C187.327 171.133 187.593 170.393 187.86 169.5C188.167 168.54 188.427 167.513 188.64 166.42C188.853 165.327 189.007 164.26 189.1 163.22L191.82 163.3ZM209.92 162.24C209.507 162.84 209.013 163.46 208.44 164.1C207.867 164.727 207.233 165.36 206.54 166C205.86 166.627 205.133 167.233 204.36 167.82C203.6 168.393 202.807 168.92 201.98 169.4C201.887 169.213 201.753 169 201.58 168.76C201.407 168.52 201.22 168.287 201.02 168.06C200.833 167.833 200.647 167.64 200.46 167.48C201.313 167.013 202.147 166.48 202.96 165.88C203.773 165.267 204.533 164.613 205.24 163.92C205.96 163.227 206.607 162.54 207.18 161.86C207.753 161.167 208.227 160.507 208.6 159.88H211.02C211.567 160.653 212.167 161.407 212.82 162.14C213.487 162.86 214.187 163.54 214.92 164.18C215.667 164.82 216.433 165.4 217.22 165.92C218.02 166.44 218.813 166.887 219.6 167.26C219.293 167.553 219.007 167.887 218.74 168.26C218.473 168.633 218.233 169.007 218.02 169.38C217.247 168.927 216.473 168.413 215.7 167.84C214.94 167.267 214.193 166.667 213.46 166.04C212.74 165.4 212.073 164.76 211.46 164.12C210.86 163.467 210.347 162.84 209.92 162.24ZM205.7 166.14H214.22V168.36H205.7V166.14ZM202.94 170.26H214.52V172.54H202.94V170.26ZM214.12 170.26H214.48L214.9 170.16L216.82 170.7C216.487 171.527 216.113 172.413 215.7 173.36C215.287 174.293 214.86 175.233 214.42 176.18C213.993 177.113 213.567 178.007 213.14 178.86L210.58 178.16C210.9 177.533 211.227 176.873 211.56 176.18C211.907 175.473 212.24 174.773 212.56 174.08C212.88 173.387 213.173 172.733 213.44 172.12C213.72 171.507 213.947 170.98 214.12 170.54V170.26ZM224.96 159.92L227.42 160.56C227.06 161.547 226.633 162.513 226.14 163.46C225.66 164.407 225.133 165.287 224.56 166.1C224 166.9 223.42 167.6 222.82 168.2C222.66 168.067 222.453 167.9 222.2 167.7C221.947 167.487 221.687 167.287 221.42 167.1C221.167 166.913 220.94 166.76 220.74 166.64C221.353 166.12 221.927 165.507 222.46 164.8C222.993 164.08 223.473 163.307 223.9 162.48C224.327 161.64 224.68 160.787 224.96 159.92ZM225.4 162.2H238.12V164.52H224.24L225.4 162.2ZM223.98 166.94H237.64V169.18H226.38V173.38H223.98V166.94ZM220.8 172.2H239.2V174.5H220.8V172.2ZM229.86 163.4H232.34V178.8H229.86V163.4ZM251.82 163.3C251.687 164.313 251.513 165.393 251.3 166.54C251.087 167.687 250.8 168.847 250.44 170.02C250.053 171.367 249.6 172.527 249.08 173.5C248.56 174.473 247.987 175.227 247.36 175.76C246.747 176.28 246.073 176.54 245.34 176.54C244.607 176.54 243.927 176.293 243.3 175.8C242.687 175.293 242.193 174.6 241.82 173.72C241.46 172.84 241.28 171.84 241.28 170.72C241.28 169.56 241.513 168.467 241.98 167.44C242.447 166.413 243.093 165.507 243.92 164.72C244.76 163.92 245.733 163.293 246.84 162.84C247.96 162.387 249.167 162.16 250.46 162.16C251.7 162.16 252.813 162.36 253.8 162.76C254.8 163.16 255.653 163.713 256.36 164.42C257.067 165.127 257.607 165.953 257.98 166.9C258.353 167.847 258.54 168.867 258.54 169.96C258.54 171.36 258.253 172.613 257.68 173.72C257.107 174.827 256.253 175.74 255.12 176.46C254 177.18 252.6 177.673 250.92 177.94L249.42 175.56C249.807 175.52 250.147 175.473 250.44 175.42C250.733 175.367 251.013 175.307 251.28 175.24C251.92 175.08 252.513 174.853 253.06 174.56C253.62 174.253 254.107 173.88 254.52 173.44C254.933 172.987 255.253 172.46 255.48 171.86C255.72 171.26 255.84 170.6 255.84 169.88C255.84 169.093 255.72 168.373 255.48 167.72C255.24 167.067 254.887 166.5 254.42 166.02C253.953 165.527 253.387 165.153 252.72 164.9C252.053 164.633 251.287 164.5 250.42 164.5C249.353 164.5 248.413 164.693 247.6 165.08C246.787 165.453 246.1 165.94 245.54 166.54C244.98 167.14 244.553 167.787 244.26 168.48C243.98 169.173 243.84 169.833 243.84 170.46C243.84 171.127 243.92 171.687 244.08 172.14C244.24 172.58 244.433 172.913 244.66 173.14C244.9 173.353 245.153 173.46 245.42 173.46C245.7 173.46 245.973 173.32 246.24 173.04C246.52 172.747 246.793 172.307 247.06 171.72C247.327 171.133 247.593 170.393 247.86 169.5C248.167 168.54 248.427 167.513 248.64 166.42C248.853 165.327 249.007 164.26 249.1 163.22L251.82 163.3ZM265.32 167.8V175.18H263.02V170.02H260.76V167.8H265.32ZM265.32 174.22C265.707 174.887 266.253 175.38 266.96 175.7C267.667 176.007 268.527 176.18 269.54 176.22C270.14 176.247 270.86 176.267 271.7 176.28C272.553 176.28 273.44 176.273 274.36 176.26C275.293 176.247 276.2 176.227 277.08 176.2C277.973 176.16 278.773 176.107 279.48 176.04C279.387 176.213 279.287 176.447 279.18 176.74C279.087 177.02 278.993 177.307 278.9 177.6C278.82 177.893 278.76 178.153 278.72 178.38C278.107 178.42 277.4 178.447 276.6 178.46C275.8 178.473 274.973 178.48 274.12 178.48C273.267 178.493 272.44 178.493 271.64 178.48C270.84 178.48 270.133 178.467 269.52 178.44C268.32 178.387 267.3 178.193 266.46 177.86C265.62 177.527 264.9 176.973 264.3 176.2C263.913 176.6 263.5 176.993 263.06 177.38C262.633 177.78 262.167 178.193 261.66 178.62L260.52 176.24C260.947 175.96 261.393 175.647 261.86 175.3C262.34 174.953 262.8 174.593 263.24 174.22H265.32ZM260.84 161.88L262.66 160.52C263.047 160.813 263.447 161.147 263.86 161.52C264.273 161.893 264.653 162.267 265 162.64C265.347 163.013 265.627 163.367 265.84 163.7L263.86 165.22C263.673 164.887 263.413 164.527 263.08 164.14C262.76 163.74 262.4 163.347 262 162.96C261.6 162.56 261.213 162.2 260.84 161.88ZM271.3 162.7H273.62V175.76H271.3V162.7ZM269.26 169.72V170.52H275.74V169.72H269.26ZM269.26 167.58V168.36H275.74V167.58H269.26ZM267.22 166.1H277.9V172H267.22V166.1ZM266.26 160.64H278.88V163.38H276.66V162.34H268.36V163.38H266.26V160.64ZM266.82 163.72H278.22V165.36H266.82V163.72ZM266.08 172.72H279.1V174.46H266.08V172.72ZM284.34 166.54H286.52V170.7L284.34 170.84V166.54ZM280.98 163.14H290.02V164.66H280.98V163.14ZM281.62 161.02H289.32V162.44H281.62V161.02ZM284.34 160H286.52V164.12H284.34V160ZM280.86 169.92C281.607 169.893 282.453 169.86 283.4 169.82C284.36 169.767 285.373 169.713 286.44 169.66C287.507 169.593 288.573 169.527 289.64 169.46V171.04C288.6 171.107 287.56 171.173 286.52 171.24C285.493 171.307 284.507 171.373 283.56 171.44C282.613 171.493 281.753 171.553 280.98 171.62L280.86 169.92ZM283.2 164.34L284.9 164.44C284.713 165.2 284.34 165.82 283.78 166.3C283.233 166.78 282.52 167.14 281.64 167.38C281.56 167.207 281.427 166.98 281.24 166.7C281.067 166.407 280.9 166.173 280.74 166C281.393 165.867 281.94 165.673 282.38 165.42C282.82 165.153 283.093 164.793 283.2 164.34ZM285.88 163.96H287.66V165.18C287.66 165.38 287.673 165.5 287.7 165.54C287.727 165.58 287.787 165.6 287.88 165.6C287.907 165.6 287.947 165.6 288 165.6C288.067 165.6 288.133 165.6 288.2 165.6C288.267 165.6 288.313 165.6 288.34 165.6C288.46 165.6 288.54 165.56 288.58 165.48C288.62 165.387 288.653 165.193 288.68 164.9C288.84 165.007 289.06 165.107 289.34 165.2C289.62 165.293 289.867 165.36 290.08 165.4C290.027 165.947 289.88 166.327 289.64 166.54C289.413 166.74 289.067 166.84 288.6 166.84C288.52 166.84 288.413 166.84 288.28 166.84C288.147 166.84 288.013 166.84 287.88 166.84C287.76 166.84 287.653 166.84 287.56 166.84C287.093 166.84 286.74 166.793 286.5 166.7C286.26 166.593 286.093 166.42 286 166.18C285.92 165.94 285.88 165.607 285.88 165.18V163.96ZM281.66 167.42H289.34V168.86H281.66V167.42ZM282.26 172.52H295.74V174.32H282.26V172.52ZM295.26 172.52H297.72C297.72 172.52 297.713 172.573 297.7 172.68C297.687 172.787 297.673 172.913 297.66 173.06C297.66 173.193 297.647 173.313 297.62 173.42C297.527 174.327 297.42 175.093 297.3 175.72C297.18 176.347 297.047 176.847 296.9 177.22C296.753 177.593 296.587 177.873 296.4 178.06C296.147 178.3 295.88 178.467 295.6 178.56C295.32 178.653 294.993 178.713 294.62 178.74C294.3 178.78 293.887 178.8 293.38 178.8C292.873 178.8 292.333 178.787 291.76 178.76C291.747 178.44 291.673 178.073 291.54 177.66C291.407 177.26 291.247 176.913 291.06 176.62C291.58 176.673 292.08 176.707 292.56 176.72C293.04 176.733 293.387 176.74 293.6 176.74C293.787 176.74 293.94 176.733 294.06 176.72C294.18 176.693 294.287 176.633 294.38 176.54C294.513 176.447 294.627 176.253 294.72 175.96C294.827 175.667 294.92 175.267 295 174.76C295.093 174.24 295.173 173.587 295.24 172.8L295.26 172.52ZM288.66 171.5H291.1C291.007 172.313 290.86 173.06 290.66 173.74C290.473 174.42 290.187 175.033 289.8 175.58C289.427 176.113 288.92 176.587 288.28 177C287.64 177.427 286.82 177.787 285.82 178.08C284.82 178.387 283.6 178.64 282.16 178.84C282.093 178.547 281.947 178.207 281.72 177.82C281.493 177.447 281.28 177.14 281.08 176.9C282.36 176.753 283.433 176.573 284.3 176.36C285.167 176.147 285.867 175.893 286.4 175.6C286.947 175.293 287.367 174.947 287.66 174.56C287.967 174.16 288.193 173.707 288.34 173.2C288.487 172.693 288.593 172.127 288.66 171.5ZM289.92 166.52L290.88 165C291.44 165.213 292.027 165.48 292.64 165.8C293.267 166.12 293.847 166.453 294.38 166.8C294.927 167.133 295.367 167.46 295.7 167.78L294.68 169.5C294.36 169.18 293.933 168.84 293.4 168.48C292.88 168.107 292.313 167.747 291.7 167.4C291.087 167.053 290.493 166.76 289.92 166.52ZM290.4 162.18H296.38V164.08H290.4V162.18ZM295.56 162.18H297.68C297.667 163.22 297.66 164.2 297.66 165.12C297.66 166.04 297.673 166.853 297.7 167.56C297.727 168.253 297.773 168.807 297.84 169.22C297.92 169.62 298.02 169.82 298.14 169.82C298.26 169.82 298.333 169.6 298.36 169.16C298.4 168.72 298.427 168.167 298.44 167.5C298.64 167.74 298.853 167.993 299.08 168.26C299.32 168.513 299.54 168.72 299.74 168.88C299.66 169.893 299.5 170.647 299.26 171.14C299.033 171.633 298.6 171.88 297.96 171.88C297.373 171.88 296.913 171.633 296.58 171.14C296.26 170.633 296.027 169.94 295.88 169.06C295.733 168.167 295.64 167.133 295.6 165.96C295.573 164.787 295.56 163.527 295.56 162.18ZM292.34 160H294.36C294.347 161.4 294.293 162.687 294.2 163.86C294.12 165.02 293.96 166.073 293.72 167.02C293.493 167.967 293.14 168.807 292.66 169.54C292.193 170.273 291.567 170.907 290.78 171.44C290.66 171.213 290.473 170.947 290.22 170.64C289.967 170.333 289.727 170.1 289.5 169.94C290.167 169.473 290.687 168.933 291.06 168.32C291.447 167.693 291.727 166.973 291.9 166.16C292.073 165.333 292.18 164.413 292.22 163.4C292.273 162.387 292.313 161.253 292.34 160ZM307.82 164.72C308.393 164.773 308.967 164.82 309.54 164.86C310.127 164.887 310.72 164.9 311.32 164.9C312.547 164.9 313.767 164.847 314.98 164.74C316.193 164.633 317.313 164.467 318.34 164.24V166.74C317.3 166.887 316.173 167.007 314.96 167.1C313.747 167.18 312.533 167.22 311.32 167.22C310.733 167.22 310.147 167.213 309.56 167.2C308.987 167.173 308.407 167.14 307.82 167.1V164.72ZM315.42 161.34C315.393 161.527 315.367 161.733 315.34 161.96C315.327 162.187 315.313 162.413 315.3 162.64C315.287 162.853 315.273 163.14 315.26 163.5C315.247 163.86 315.24 164.267 315.24 164.72C315.24 165.16 315.24 165.627 315.24 166.12C315.24 167.027 315.253 167.88 315.28 168.68C315.307 169.467 315.34 170.2 315.38 170.88C315.42 171.547 315.453 172.16 315.48 172.72C315.52 173.28 315.54 173.8 315.54 174.28C315.54 174.8 315.467 175.28 315.32 175.72C315.187 176.16 314.967 176.547 314.66 176.88C314.353 177.213 313.947 177.467 313.44 177.64C312.947 177.827 312.34 177.92 311.62 177.92C310.233 177.92 309.14 177.64 308.34 177.08C307.54 176.52 307.14 175.713 307.14 174.66C307.14 173.98 307.32 173.387 307.68 172.88C308.04 172.36 308.553 171.96 309.22 171.68C309.887 171.387 310.673 171.24 311.58 171.24C312.527 171.24 313.387 171.34 314.16 171.54C314.933 171.74 315.64 172.007 316.28 172.34C316.92 172.673 317.487 173.04 317.98 173.44C318.487 173.827 318.94 174.2 319.34 174.56L317.96 176.66C317.2 175.94 316.46 175.32 315.74 174.8C315.02 174.28 314.3 173.88 313.58 173.6C312.873 173.32 312.14 173.18 311.38 173.18C310.82 173.18 310.36 173.287 310 173.5C309.653 173.713 309.48 174.013 309.48 174.4C309.48 174.8 309.66 175.093 310.02 175.28C310.38 175.467 310.82 175.56 311.34 175.56C311.753 175.56 312.08 175.493 312.32 175.36C312.56 175.213 312.727 175.007 312.82 174.74C312.927 174.46 312.98 174.127 312.98 173.74C312.98 173.393 312.967 172.94 312.94 172.38C312.913 171.82 312.88 171.193 312.84 170.5C312.813 169.807 312.787 169.087 312.76 168.34C312.733 167.58 312.72 166.84 312.72 166.12C312.72 165.36 312.713 164.673 312.7 164.06C312.7 163.433 312.7 162.967 312.7 162.66C312.7 162.513 312.687 162.307 312.66 162.04C312.633 161.773 312.6 161.54 312.56 161.34H315.42ZM305.66 161.56C305.62 161.693 305.56 161.88 305.48 162.12C305.413 162.36 305.353 162.593 305.3 162.82C305.26 163.047 305.227 163.22 305.2 163.34C305.133 163.62 305.06 164 304.98 164.48C304.9 164.947 304.813 165.48 304.72 166.08C304.64 166.667 304.56 167.273 304.48 167.9C304.4 168.513 304.34 169.1 304.3 169.66C304.26 170.207 304.24 170.68 304.24 171.08C304.24 171.28 304.24 171.5 304.24 171.74C304.253 171.967 304.28 172.18 304.32 172.38C304.413 172.14 304.507 171.907 304.6 171.68C304.707 171.453 304.813 171.227 304.92 171C305.027 170.773 305.127 170.547 305.22 170.32L306.44 171.32C306.253 171.867 306.06 172.44 305.86 173.04C305.673 173.64 305.5 174.207 305.34 174.74C305.193 175.273 305.08 175.72 305 176.08C304.973 176.213 304.947 176.373 304.92 176.56C304.907 176.747 304.9 176.9 304.9 177.02C304.9 177.127 304.9 177.253 304.9 177.4C304.913 177.56 304.927 177.707 304.94 177.84L302.68 178.02C302.467 177.313 302.28 176.413 302.12 175.32C301.96 174.213 301.88 172.98 301.88 171.62C301.88 170.873 301.913 170.093 301.98 169.28C302.047 168.453 302.12 167.66 302.2 166.9C302.293 166.14 302.387 165.447 302.48 164.82C302.573 164.18 302.647 163.667 302.7 163.28C302.74 163 302.78 162.687 302.82 162.34C302.86 161.98 302.887 161.64 302.9 161.32L305.66 161.56Z" fill="#FF5E5E"/>
<rect x="40" y="550" width="420" height="10" fill="#FF5E5E"/>
</svg>
