<svg width="1251" height="311" viewBox="0 0 1251 311" fill="none" xmlns="http://www.w3.org/2000/svg">
<g clip-path="url(#clip0_2452_354)">
<mask id="mask0_2452_354" style="mask-type:alpha" maskUnits="userSpaceOnUse" x="0" y="0" width="1251" height="311">
<rect width="1251" height="311" fill="url(#paint0_radial_2452_354)"/>
</mask>
<g mask="url(#mask0_2452_354)">
<g opacity="0.1">
<rect x="16.2388" y="-273.449" width="2" height="658.898" fill="#0B6F72"/>
<rect x="80.2388" y="-273.449" width="2" height="658.898" fill="#0B6F72"/>
<rect x="144.238" y="-273.449" width="2" height="658.898" fill="#0B6F72"/>
<rect x="208.238" y="-273.449" width="2" height="658.898" fill="#0B6F72"/>
<rect x="272.239" y="-273.449" width="2" height="658.898" fill="#0B6F72"/>
<rect x="336.239" y="-273.449" width="2" height="658.898" fill="#0B6F72"/>
<rect x="400.239" y="-273.449" width="2" height="658.898" fill="#0B6F72"/>
<rect x="464.239" y="-273.449" width="2" height="658.898" fill="#0B6F72"/>
<rect x="528.238" y="-273.449" width="2" height="658.898" fill="#0B6F72"/>
<rect x="592.238" y="-273.449" width="2" height="658.898" fill="#0B6F72"/>
<rect x="656.239" y="-273.449" width="2" height="658.898" fill="#0B6F72"/>
<rect x="720.239" y="-273.449" width="2" height="658.898" fill="#0B6F72"/>
<rect x="784.239" y="-273.449" width="2" height="658.898" fill="#0B6F72"/>
<rect x="848.239" y="-273.449" width="2" height="658.898" fill="#0B6F72"/>
<rect x="912.238" y="-273.449" width="2" height="658.898" fill="#0B6F72"/>
<rect x="976.238" y="-273.449" width="2" height="658.898" fill="#0B6F72"/>
<rect x="1040.24" y="-273.449" width="2" height="658.898" fill="#0B6F72"/>
<rect x="1104.24" y="-273.45" width="2" height="658.898" fill="#0B6F72"/>
<rect x="1168.24" y="-273.449" width="2" height="658.898" fill="#0B6F72"/>
<rect x="1232.24" y="-273.449" width="2" height="658.898" fill="#0B6F72"/>
</g>
<g opacity="0.1">
<rect x="-181.978" y="281" width="2" height="1678.82" transform="rotate(-90 -181.978 281)" fill="#0B6F72"/>
<rect x="-181.978" y="217" width="2" height="1678.82" transform="rotate(-90 -181.978 217)" fill="#0B6F72"/>
<rect x="-181.978" y="153" width="2" height="1678.82" transform="rotate(-90 -181.978 153)" fill="#0B6F72"/>
<rect x="-181.978" y="89.0004" width="2" height="1678.82" transform="rotate(-90 -181.978 89.0004)" fill="#0B6F72"/>
<rect x="-181.978" y="25" width="2" height="1678.82" transform="rotate(-90 -181.978 25)" fill="#0B6F72"/>
</g>
<rect width="814" height="127" transform="translate(219 88)" fill="#0B6F72"/>
<path d="M470.65 88.0957C475.418 87.5242 482.921 88.0957 482.921 88.0957L482.921 214.634L452.466 214.634L452.466 163.883C452.466 163.883 442.42 212.539 421.566 212.602L421.375 212.602C400.521 212.539 390.412 163.883 390.412 163.883L390.412 214.634L359.957 214.634L359.957 88.0957C359.957 88.0957 367.459 87.5242 372.228 88.0957C404.654 91.7787 421.502 160.898 421.502 160.898C421.502 160.898 438.351 91.7787 470.713 88.0957L470.65 88.0957Z" stroke="#F6F2EB" stroke-width="2"/>
<path d="M549.424 215C523.167 215 501.804 195.506 501.804 167.883L501.804 88.2387C518.716 88.2387 532.45 104.955 532.45 121.846L532.45 167.756C532.45 177.789 540.65 184.393 549.297 184.393C557.944 184.393 566.337 177.599 566.337 167.756L566.337 121.846C566.337 104.955 580.07 88.2387 596.982 88.2387L596.982 167.883C596.982 195.506 575.619 215 549.361 215L549.424 215Z" stroke="#F6F2EB" stroke-width="2"/>
<path d="M282.58 88C247.484 88 219 116.448 219 151.5C219 186.552 247.484 215 282.58 215C317.676 215 346.16 186.552 346.16 151.5C346.16 116.448 317.676 88 282.58 88ZM282.58 183.25C265.032 183.25 250.79 169.026 250.79 151.5C250.79 133.974 265.032 119.75 282.58 119.75C300.128 119.75 314.37 133.974 314.37 151.5C314.37 169.026 300.128 183.25 282.58 183.25Z" stroke="#F6F2EB" stroke-width="2"/>
<path d="M699.933 214.095C697.392 214.095 695.096 212.585 694.092 210.254L689.697 200.05L644.736 200.05L640.275 210.28C639.265 212.597 636.976 214.095 634.446 214.095L603.659 214.095L657.899 91.8797C658.935 89.6223 661.193 88.175 663.679 88.175L670.682 88.175C673.167 88.175 675.424 89.621 676.461 91.8768L730.774 214.095L699.933 214.095ZM654.819 175.667L679.54 175.667L667.217 147.13L654.819 175.667Z" stroke="#F6F2EB" stroke-width="2"/>
<path d="M742.798 214.095L742.798 88.6691L788.282 88.6691C813.077 88.6691 833.765 107.346 833.765 130.878C833.765 154.111 813.525 173.61 788.282 173.61L774.764 173.61L774.764 198.22C774.764 206.988 767.647 214.095 758.869 214.095L742.798 214.095ZM788.282 144.176C796.871 144.25 802.92 138.423 802.92 131.027C802.92 123.706 796.796 118.178 788.282 118.178L774.764 118.178L774.764 144.101L788.282 144.176Z" stroke="#F6F2EB" stroke-width="2"/>
<path d="M847.358 214.095L847.358 88.6691L892.841 88.6691C917.637 88.6691 938.325 107.346 938.325 130.878C938.325 154.111 918.085 173.61 892.841 173.61L879.323 173.61L879.323 198.22C879.323 206.988 872.207 214.095 863.428 214.095L847.358 214.095ZM892.841 144.176C901.43 144.25 907.48 138.423 907.48 131.027C907.48 123.706 901.355 118.178 892.841 118.178L879.323 118.178L879.323 144.101L892.841 144.176Z" stroke="#F6F2EB" stroke-width="2"/>
<path d="M989.294 214.413C975.043 214.413 961.759 209.632 953.549 201.785C948.775 197.223 950.265 189.865 954.947 185.209L965.755 174.463C970.563 181.667 979.534 186.033 989.222 186.033C995.753 186.033 1002.14 183.631 1002.14 178.829C1002.14 172.789 990.299 166.477 978.96 161.383C964.319 154.979 951.76 141.229 951.76 123.546C951.76 103.243 970.778 88.7625 992.739 88.7625C1005.5 88.7625 1016.23 93.1701 1022.91 99.981C1027.4 104.563 1025.68 111.671 1021.05 116.118L1012.34 124.492C1005.98 118.925 998.624 117.215 993.098 117.215C986.782 117.215 982.261 120.49 982.261 124.492C982.261 129.877 990.442 131.623 1002.93 136.935C1021.01 144.649 1033 160.855 1033 178.174C1033 200.514 1012.47 214.413 989.294 214.413Z" stroke="#F6F2EB" stroke-width="2"/>
</g>
</g>
<rect x="1" y="1" width="1249" height="309" stroke="#E6E6E6" stroke-width="2"/>
<defs>
<radialGradient id="paint0_radial_2452_354" cx="0" cy="0" r="1" gradientUnits="userSpaceOnUse" gradientTransform="translate(625.5 155.5) scale(625.5 155.5)">
<stop stop-color="#D9D9D9"/>
<stop offset="0.75" stop-color="#C0C0C0"/>
<stop offset="1" stop-color="#737373" stop-opacity="0"/>
</radialGradient>
<clipPath id="clip0_2452_354">
<rect width="1251" height="311" fill="white"/>
</clipPath>
</defs>
</svg>
