<svg width="1189" height="332" viewBox="0 0 1189 332" fill="none" xmlns="http://www.w3.org/2000/svg">
<mask id="mask0_77_94" style="mask-type:alpha" maskUnits="userSpaceOnUse" x="11" y="11" width="1167" height="310">
<path d="M178.94 36.7956C198.041 36.7708 217.823 38.0833 236.821 35.4133C243.295 34.5034 249.73 33.1348 256.248 32.5482C259.72 32.2357 270.189 32.2718 266.703 32.2718" stroke="#0B6F72" stroke-width="16" stroke-linecap="round"/>
<path d="M206.989 35.8906C207.932 40.896 207.862 40.0351 208.396 47.2505C209.401 60.8121 210.55 74.8665 208.748 88.4175C207.339 99.0114 201.393 110.429 195.252 119.129C192.859 122.519 190.066 125.648 187.134 128.579C186.61 129.103 186.025 129.389 185.727 129.987" stroke="#0B6F72" stroke-width="16" stroke-linecap="round"/>
<path d="M228.25 35.8906C229.158 53.2799 227.965 70.8356 227.873 88.2416C227.834 95.83 227.458 104.097 228.929 111.615C229.564 114.859 234.107 118.813 236.594 120.637C237.903 121.597 243.211 115.043 244.737 114.254C248.467 112.326 252.808 111.108 256.751 109.629" stroke="#0B6F72" stroke-width="16" stroke-linecap="round"/>
<path d="M185.274 64.3911C184.304 108.37 183.518 152.449 180.826 196.362C180.545 200.936 180.298 205.479 180.298 210.059" stroke="#0B6F72" stroke-width="16" stroke-linecap="round"/>
<path d="M193.417 66.2007C209.975 68.5313 226.454 70.9963 243.179 71.6293C253.292 72.012 263.438 71.8824 273.539 72.5341C277.12 72.7651 272.749 72.9865 271.78 72.9865C270.294 72.9865 268.877 72.9974 267.407 72.7603C265.206 72.4053 265.423 72.9248 265.371 75.3489C265.027 91.5247 264.408 107.443 262.632 123.553C260.3 144.71 259.013 165.712 259.013 186.987" stroke="#0B6F72" stroke-width="16" stroke-linecap="round"/>
<path d="M183.012 148.987C205.611 148.645 229.483 150.455 251.322 143.558" stroke="#0B6F72" stroke-width="16" stroke-linecap="round"/>
<path d="M186.179 184.273C196.76 183.174 207.403 184.021 217.996 182.665C226.967 181.516 235.435 179.749 244.536 179.749C250.099 179.749 255.338 179.489 260.822 178.392" stroke="#0B6F72" stroke-width="16" stroke-linecap="round"/>
<path d="M283.894 35.8908C297.92 33.3352 312.088 31.4268 326.318 30.4621C331.488 30.1116 336.749 29.105 341.925 29.105C344.138 29.105 343.271 33.0843 343.408 34.6844C344.239 44.4209 345.34 54.2129 345.418 63.9889C345.499 74.1531 344.966 84.3064 344.966 94.4746C344.966 100.396 344.323 106.061 343.156 111.891" stroke="#0B6F72" stroke-width="16" stroke-linecap="round"/>
<path d="M289.775 89.7246C289.576 112.015 288.465 134.543 291.333 156.703C292.303 164.196 293.51 171.772 296.033 178.92C298.917 187.093 307.757 185.347 314.555 187.088C319 188.226 322.47 188.797 327.046 188.797C332.302 188.797 341.103 190.051 344.187 184.7C348.704 176.861 352.656 168.896 353.561 159.844" stroke="#0B6F72" stroke-width="16" stroke-linecap="round"/>
<path d="M292.037 93.7961C309.977 93.2413 327.919 92.439 345.87 92.439" stroke="#0B6F72" stroke-width="16" stroke-linecap="round"/>
<path d="M431.371 24.1289C424.451 38.1667 418.179 52.5443 411.743 66.8039C409.384 72.0306 398.818 95.5851 395.105 103.548C392.703 108.699 394.144 107.28 392.215 108.75C390.721 109.888 389.675 111.229 388.646 112.796C385.695 117.294 384.509 118.801 379.799 121.392" stroke="#0B6F72" stroke-width="16" stroke-linecap="round"/>
<path d="M413.728 72.5337C412.526 112.362 411.466 152.127 411.466 191.963" stroke="#0B6F72" stroke-width="16" stroke-linecap="round"/>
<path d="M451.276 33.6288C467.352 33.6288 483.473 33.7402 499.506 32.3973C509.487 31.5613 519.353 29.6962 529.338 28.8536C530.436 28.761 536.631 29.3976 537.229 28.2002" stroke="#0B6F72" stroke-width="16" stroke-linecap="round"/>
<path d="M439.062 64.391C460.819 65.3103 482.579 66.0053 504.356 66.1754C513.411 66.2462 522.654 66.6816 531.7 66.1C535.613 65.8485 539.641 64.1836 543.361 63.0339C548.028 61.5915 552.776 60.1649 557.586 58.9624" stroke="#0B6F72" stroke-width="16" stroke-linecap="round"/>
<path d="M456.252 88.8195C484.956 87.9711 513.704 86.5011 542.206 82.9385" stroke="#0B6F72" stroke-width="16" stroke-linecap="round"/>
<path d="M453.086 114.606C477.528 113.528 502.226 113.097 526.573 110.635C531.849 110.101 536.968 111.892 542.206 111.892" stroke="#0B6F72" stroke-width="16" stroke-linecap="round"/>
<path d="M457.157 142.653C455.524 159.761 453.086 177.007 453.086 194.225" stroke="#0B6F72" stroke-width="16" stroke-linecap="round"/>
<path d="M460.776 147.63C478.05 145.047 495.312 142.381 512.6 139.889C512.772 139.864 525.058 137.853 528.433 138.18C530.139 138.345 532.801 140.63 534.364 141.447C535.029 141.795 535.835 142.005 535.872 142.855C536.041 146.742 535.872 150.678 535.872 154.566C535.872 163.536 535.592 172.548 536.526 181.483C536.801 184.117 537.229 186.591 537.229 189.249" stroke="#0B6F72" stroke-width="16" stroke-linecap="round"/>
<path d="M469.372 180.654L527.277 180.201" stroke="#0B6F72" stroke-width="16" stroke-linecap="round"/>
<path d="M593.325 28.6523L594.682 169.344" stroke="#0B6F72" stroke-width="16" stroke-linecap="round"/>
<path d="M592.42 43.129C594.513 42.4556 610.439 37.256 613.883 36.3935C619.085 35.0906 620.167 35.3566 620.468 40.289C621.385 55.3384 620.754 70.3752 619.764 85.4018C618.778 100.372 618.09 115.237 618.759 130.238C619.038 136.498 619.648 142.735 620.015 148.987" stroke="#0B6F72" stroke-width="16" stroke-linecap="round"/>
<path d="M598.301 138.582L612.778 134.058" stroke="#0B6F72" stroke-width="16" stroke-linecap="round"/>
<path d="M640.825 53.5335C656.931 50.2362 672.833 45.7385 688.778 41.7715" stroke="#0B6F72" stroke-width="16" stroke-linecap="round"/>
<path d="M641.73 73.8909C656.974 70.6403 672.192 67.2625 687.421 63.9385" stroke="#0B6F72" stroke-width="16" stroke-linecap="round"/>
<path d="M629.063 114.153C654.135 100.503 679.131 86.7141 704.159 72.9863" stroke="#0B6F72" stroke-width="16" stroke-linecap="round"/>
<path d="M664.35 30.0098C663.072 53.395 661.353 76.76 659.826 100.129" stroke="#0B6F72" stroke-width="16" stroke-linecap="round"/>
<path d="M695.111 43.1289C704.32 41.4797 713.482 39.5479 722.657 37.7254C727.615 36.7404 732.569 35.7299 737.535 34.7849C741.462 34.0377 745.508 32.1027 749.397 33.0257C750.116 33.196 748.994 47.1433 748.945 48.0046C747.937 65.8083 745.38 83.0525 741.707 100.481C740.81 104.739 740.152 109.615 738.44 113.651C738.06 114.545 737.334 114.858 736.731 114.053C734.321 110.839 729.386 109.007 725.873 107.368" stroke="#0B6F72" stroke-width="16" stroke-linecap="round"/>
<path d="M715.016 41.3193C715.482 49.7196 716.876 58.7575 716.348 67.2058C716.204 69.5135 715.22 71.4462 714.112 73.4386C710.375 80.1535 706.159 86.7898 701.545 92.9415C696.993 99.0107 689.998 104.116 683.726 108.297C679.783 110.927 675.206 114.455 670.683 115.963" stroke="#0B6F72" stroke-width="16" stroke-linecap="round"/>
<path d="M633.135 145.368C667.541 143.227 701.946 141.07 736.354 138.959C738.838 138.807 740.807 138.582 743.064 138.582C744.366 138.582 745.637 138.618 746.935 138.783C749.751 139.141 752.451 139.487 755.279 139.487" stroke="#0B6F72" stroke-width="16" stroke-linecap="round"/>
<path d="M694.659 113.701C693.972 123.797 694.952 135.589 689.18 144.513C683.356 153.52 676.018 161.094 669.049 169.168C662.384 176.891 653.264 183.94 643.766 187.816C639.477 189.567 634.433 190.171 629.968 191.511" stroke="#0B6F72" stroke-width="16" stroke-linecap="round"/>
<path d="M698.73 153.963C706.017 159.63 713.74 164.833 721.325 170.073C727.882 174.603 735.935 180.158 742.863 184.574C746.597 186.954 745.133 186.223 747.186 186.937C747.811 187.154 748.222 187.351 748.493 187.892" stroke="#0B6F72" stroke-width="16" stroke-linecap="round"/>
<path d="M787.398 45.8433C832.355 50.0393 878.504 56.5091 923.792 52.1264C933.13 51.2227 942.881 49.7885 951.614 46.2956" stroke="#0B6F72" stroke-width="16" stroke-linecap="round"/>
<path d="M835.803 20.0571L836.256 68.0099" stroke="#0B6F72" stroke-width="16" stroke-linecap="round"/>
<path d="M906.375 19.605C904.048 32.8719 901.09 46.2598 899.589 59.6662C899.533 60.1693 899.589 60.7154 899.589 61.2244" stroke="#0B6F72" stroke-width="16" stroke-linecap="round"/>
<path d="M865.66 62.1289C854.978 75.9612 842.354 88.6513 830.123 101.109C826.993 104.298 823.617 107.83 820.02 110.534C813.051 115.773 804.393 118.609 796.446 121.944C792.314 123.678 788.728 126.762 784.483 128.177C780.57 129.481 776.398 129.713 772.469 130.891" stroke="#0B6F72" stroke-width="16" stroke-linecap="round"/>
<path d="M867.47 59.8672C879.896 73.014 892.012 86.7292 905.119 99.2247C908.985 102.911 913.051 104.968 917.861 107.091C923.367 109.522 929.07 111.421 934.674 113.6C940.894 116.019 947.517 118.439 953.423 121.392" stroke="#0B6F72" stroke-width="16" stroke-linecap="round"/>
<path d="M813.184 130.891C841.431 131.466 869.681 132.172 897.931 132.575C902.115 132.635 903.507 132.683 906.928 131.796C910.07 130.981 913.244 130.562 916.328 129.534" stroke="#0B6F72" stroke-width="16" stroke-linecap="round"/>
<path d="M871.542 104.201C870.269 129.398 867.438 155.272 868.475 180.553C868.584 183.209 869.188 185.833 869.28 188.495C869.335 190.1 869.28 191.715 869.28 193.32" stroke="#0B6F72" stroke-width="16" stroke-linecap="round"/>
<path d="M837.613 148.082C824.3 160.08 810.985 172.074 797.627 184.021C793.99 187.274 795.772 185.473 794.636 186.987" stroke="#0B6F72" stroke-width="16" stroke-linecap="round"/>
<path d="M898.232 151.249C901.858 152.698 911.456 156.498 915.524 158.236C917.937 159.267 920.824 160.267 922.611 162.332C923.579 163.452 924.45 164.669 925.376 165.826C927.565 168.563 928.701 171.385 929.899 174.672C930.394 176.03 931.676 178.172 931.709 179.598C931.759 181.757 931.709 183.923 931.709 186.083" stroke="#0B6F72" stroke-width="16" stroke-linecap="round"/>
<path opacity="0.8" d="M181.444 253.128C439.234 233.881 697.792 221.002 956.078 210.685C1027.15 207.846 1098.28 207.455 1169.23 202.645" stroke="#0B6F72" stroke-width="16" stroke-linecap="round"/>
<path opacity="0.5" d="M19.8984 312.025C212.333 288.579 404.666 264.29 597.275 242.283C670.863 233.875 747.794 222.566 822.578 221.155" stroke="#0B6F72" stroke-width="16" stroke-linecap="round"/>
<path opacity="0.2" d="M706.238 259.898C843.712 253.649 981.487 242.328 1119.14 242.328" stroke="#0B6F72" stroke-width="16" stroke-linecap="round"/>
<path opacity="0.1" d="M827 275.253C835.776 272.444 844.195 273.056 853.356 273.056" stroke="#0B6F72" stroke-width="16" stroke-linecap="round"/>
</mask>
<g mask="url(#mask0_77_94)">
<rect width="1169" height="322" fill="url(#paint0_linear_77_94)"/>
<rect width="1169" height="322" fill="#0B6F72"/>
</g>
<defs>
<linearGradient id="paint0_linear_77_94" x1="598" y1="141.391" x2="635.09" y2="264.608" gradientUnits="userSpaceOnUse">
<stop stop-color="#0B6F72"/>
<stop offset="1" stop-color="#BBC7C8"/>
</linearGradient>
</defs>
</svg>
