<svg width="1189" height="332" viewBox="0 0 1189 332" fill="none" xmlns="http://www.w3.org/2000/svg">
<mask id="mask0_164_48" style="mask-type:alpha" maskUnits="userSpaceOnUse" x="11" y="3" width="1127" height="327">
<path d="M190.657 65.9724C209.739 64.949 229.11 65.1689 248.862 61.6213C255.594 60.4123 262.421 58.7667 269.101 57.8646C272.66 57.3841 283.104 56.8706 279.622 57.0531" stroke="#0B6F72" stroke-width="16" stroke-linecap="round"/>
<path d="M218.932 63.6392C218.411 68.3765 218.592 67.5568 217.016 74.429C214.054 87.3455 211.093 100.726 205.331 113.779C200.827 123.984 191.551 135.214 182.874 143.855C179.494 147.222 175.789 150.36 172.005 153.317C171.328 153.845 170.661 154.149 170.188 154.736" stroke="#0B6F72" stroke-width="16" stroke-linecap="round"/>
<path d="M240.164 62.5263C235.986 79.1083 229.662 95.9593 224.482 112.61C222.224 119.868 219.432 127.794 218.702 134.906C218.388 137.976 221.768 141.519 223.719 143.133C224.745 143.982 231.962 137.437 233.718 136.602C238.006 134.564 242.697 133.171 247.066 131.551" stroke="#0B6F72" stroke-width="16" stroke-linecap="round"/>
<path d="M188.914 92.0306C175.087 134.139 161.415 176.333 145.887 218.468C144.27 222.857 142.695 227.214 141.356 231.594" stroke="#0B6F72" stroke-width="16" stroke-linecap="round"/>
<path d="M196.517 93.335C212.371 94.6972 228.107 96.192 244.624 95.922C254.611 95.7588 264.781 95.1038 274.678 95.1983C278.186 95.2318 273.756 95.6723 272.789 95.723C271.305 95.8008 269.887 95.8854 268.488 95.7356C266.394 95.5113 266.458 95.9968 265.698 98.3177C260.625 113.805 255.352 129.06 248.869 144.559C240.354 164.913 232.929 185.065 226.708 205.411" stroke="#0B6F72" stroke-width="16" stroke-linecap="round"/>
<path d="M161.922 173.048C184.59 171.539 207.9 172.02 231.726 164.282" stroke="#0B6F72" stroke-width="16" stroke-linecap="round"/>
<path d="M154.767 206.627C165.655 205.022 176.037 205.275 187.012 203.424C196.305 201.856 205.279 199.723 214.368 199.247C219.923 198.955 225.231 198.432 231.028 197.096" stroke="#0B6F72" stroke-width="16" stroke-linecap="round"/>
<path d="M295.732 59.6143C310.485 56.4364 325.193 53.8698 339.685 52.2026C344.95 51.5968 350.498 50.3588 355.667 50.0879C357.877 49.9721 355.848 53.8229 355.517 55.3459C353.5 64.6135 351.737 73.92 348.957 83.2647C346.066 92.9806 342.565 102.718 339.592 112.442C337.861 118.105 335.562 123.555 332.693 129.192" stroke="#0B6F72" stroke-width="16" stroke-linecap="round"/>
<path d="M285.865 110.788C279.149 132.115 271.454 153.716 267.839 174.758C266.616 181.873 265.607 189.055 266.036 195.758C266.527 203.423 275.865 201.291 282.145 202.6C286.252 203.456 289.55 203.82 294.12 203.58C299.369 203.305 307.79 204.044 312.434 198.766C319.238 191.032 325.513 183.209 329.063 174.505" stroke="#0B6F72" stroke-width="16" stroke-linecap="round"/>
<path d="M286.933 114.563C305.011 113.094 323.163 111.388 341.09 110.448" stroke="#0B6F72" stroke-width="16" stroke-linecap="round"/>
<path d="M446.446 40.6481C435.431 54.4346 424.964 68.5123 414.367 82.4856C410.483 87.6075 393.045 110.686 387.009 118.495C383.105 123.546 384.958 122.114 382.602 123.621C380.778 124.787 379.341 126.124 377.855 127.677C373.593 132.132 371.968 133.636 366.507 136.36" stroke="#0B6F72" stroke-width="16" stroke-linecap="round"/>
<path d="M414.675 87.8611C401.83 126.012 389.145 164.095 377.498 202.191" stroke="#0B6F72" stroke-width="16" stroke-linecap="round"/>
<path d="M463.546 48.6909C479.599 47.8496 495.665 47.1124 512.069 44.9891C522.281 43.6672 532.679 41.3673 542.896 40.039C544.02 39.8929 550.02 40.1775 550.968 39.0011" stroke="#0B6F72" stroke-width="16" stroke-linecap="round"/>
<path d="M442.354 78.7485C463.812 78.489 485.339 78.0148 507.037 77.0377C516.059 76.6315 525.162 76.5641 534.365 75.5346C538.347 75.0892 542.856 73.2863 546.907 71.9921C551.989 70.3685 557.148 68.7557 562.303 67.354" stroke="#0B6F72" stroke-width="16" stroke-linecap="round"/>
<path d="M452.379 101.209C481.291 98.8959 510.43 95.9856 539.933 91.087" stroke="#0B6F72" stroke-width="16" stroke-linecap="round"/>
<path d="M441.678 126.035C466.402 123.725 491.191 122.02 516.225 118.391C521.649 117.605 526.238 119.049 531.469 118.775" stroke="#0B6F72" stroke-width="16" stroke-linecap="round"/>
<path d="M437.543 152.644C430.91 169.089 423.433 185.709 418.399 202.175" stroke="#0B6F72" stroke-width="16" stroke-linecap="round"/>
<path d="M439.702 157.213C457.708 153.839 475.725 150.386 493.718 147.099C493.897 147.066 506.755 144.499 510.029 144.636C511.684 144.704 513.675 146.75 514.997 147.45C515.559 147.747 516.303 147.906 516.091 148.717C515.124 152.425 513.804 156.198 512.667 159.917C510.045 168.494 507.13 177.127 505.45 185.623C504.955 188.127 504.659 190.471 503.882 193.013" stroke="#0B6F72" stroke-width="16" stroke-linecap="round"/>
<path d="M438.63 188.344L496.589 184.881" stroke="#0B6F72" stroke-width="16" stroke-linecap="round"/>
<path d="M606.855 36.4976L567.076 170.971" stroke="#0B6F72" stroke-width="16" stroke-linecap="round"/>
<path d="M601.718 50.389C604.006 49.6355 621.43 43.8296 625.121 42.8245C630.697 41.3063 631.7 41.5041 630.558 46.2052C627.075 60.549 622.047 74.9619 616.666 89.3836C611.304 103.752 606.271 118.003 602.553 132.313C601.002 138.285 599.787 144.218 598.326 150.177" stroke="#0B6F72" stroke-width="16" stroke-linecap="round"/>
<path d="M579.684 141.364L595.463 136.28" stroke="#0B6F72" stroke-width="16" stroke-linecap="round"/>
<path d="M647.015 57.8057C664.063 53.8096 681.259 48.6761 698.341 44.048" stroke="#0B6F72" stroke-width="16" stroke-linecap="round"/>
<path d="M641.967 77.2261C658.141 73.3196 674.325 69.293 690.505 65.3172" stroke="#0B6F72" stroke-width="16" stroke-linecap="round"/>
<path d="M617.546 116.392C646.574 102.027 675.567 87.5316 704.575 73.0937" stroke="#0B6F72" stroke-width="16" stroke-linecap="round"/>
<path d="M677.385 34.0787C669.272 56.5089 660.724 78.943 652.366 101.371" stroke="#0B6F72" stroke-width="16" stroke-linecap="round"/>
<path d="M704.269 45.0147C713.947 42.9555 723.662 40.6286 733.356 38.4057C738.596 37.2042 743.838 35.9786 749.074 34.815C753.214 33.8949 757.82 31.8327 761.435 32.5117C762.102 32.6371 756.904 46.0337 756.604 46.8599C750.392 63.9384 742.796 80.563 734.033 97.4223C731.892 101.541 729.809 106.238 726.92 110.187C726.279 111.062 725.463 111.399 725.095 110.661C723.628 107.714 719.236 106.22 716.208 104.836" stroke="#0B6F72" stroke-width="16" stroke-linecap="round"/>
<path d="M724.676 42.2423C722.685 50.2511 721.435 58.8211 718.438 66.9279C717.619 69.1423 716.071 71.042 714.381 73.0055C708.687 79.6225 702.536 86.1895 696.13 92.3138C689.81 98.3561 681.332 103.605 673.846 107.931C669.139 110.652 663.537 114.266 658.579 115.944" stroke="#0B6F72" stroke-width="16" stroke-linecap="round"/>
<path d="M612.486 146.03C647.47 142.182 682.459 138.318 717.437 134.499C719.962 134.223 721.995 133.905 724.249 133.787C725.549 133.719 726.807 133.687 728.055 133.777C730.763 133.972 733.358 134.161 736.182 134.013" stroke="#0B6F72" stroke-width="16" stroke-linecap="round"/>
<path d="M683.184 112.526C679.546 122.217 677.077 133.443 668.704 142.279C660.255 151.197 650.712 158.824 641.392 166.91C632.479 174.645 621.31 181.863 610.692 186.067C605.897 187.966 600.683 188.808 595.833 190.322" stroke="#0B6F72" stroke-width="16" stroke-linecap="round"/>
<path d="M675.479 150.816C681.098 155.855 687.289 160.426 693.332 165.04C698.555 169.029 704.974 173.919 710.601 177.78C713.633 179.861 712.385 179.238 714.227 179.813C714.788 179.989 715.141 180.155 715.253 180.658" stroke="#0B6F72" stroke-width="16" stroke-linecap="round"/>
<path d="M795.635 42.7808C839.304 44.4406 883.498 48.2125 930.005 41.651C939.594 40.2982 949.752 38.4163 959.494 34.619" stroke="#0B6F72" stroke-width="16" stroke-linecap="round"/>
<path d="M851.514 15.5879L837.945 61.4217" stroke="#0B6F72" stroke-width="16" stroke-linecap="round"/>
<path d="M922.121 11.4619C915.918 24.2709 909.05 37.2286 903.632 50.1277C903.428 50.6119 903.325 51.1312 903.176 51.6179" stroke="#0B6F72" stroke-width="16" stroke-linecap="round"/>
<path d="M869.029 54.2585C854.317 68.0454 838 80.8418 822.144 93.3956C818.085 96.6089 813.681 100.163 809.299 102.937C800.808 108.312 791.333 111.477 782.421 115.083C777.788 116.957 773.305 120.094 768.652 121.669C764.363 123.121 760.13 123.561 755.862 124.894" stroke="#0B6F72" stroke-width="16" stroke-linecap="round"/>
<path d="M871.498 52.001C880.062 63.9231 888.152 76.4048 897.587 87.6683C900.371 90.9914 903.83 92.7455 908.012 94.5242C912.8 96.5604 917.94 98.0781 922.9 99.8691C928.403 101.857 934.31 103.824 939.345 106.339" stroke="#0B6F72" stroke-width="16" stroke-linecap="round"/>
<path d="M796.521 122.763C824.561 121.834 852.565 121.03 880.659 119.938C884.82 119.776 886.196 119.749 889.872 118.722C893.248 117.778 896.54 117.211 899.92 116.067" stroke="#0B6F72" stroke-width="16" stroke-linecap="round"/>
<path d="M862.602 94.1843C853.963 118.347 843.572 143.239 837.216 167.361C836.549 169.895 836.384 172.373 835.697 174.914C835.284 176.445 834.756 177.993 834.287 179.528" stroke="#0B6F72" stroke-width="16" stroke-linecap="round"/>
<path d="M815.89 137.924C799.087 150.094 782.284 162.261 765.451 174.386C760.868 177.687 763.174 175.871 761.597 177.378" stroke="#0B6F72" stroke-width="16" stroke-linecap="round"/>
<path d="M875.5 137.78C878.698 138.975 887.172 142.107 890.725 143.556C892.834 144.416 895.425 145.221 896.605 147.103C897.245 148.123 897.759 149.241 898.345 150.299C899.731 152.802 900.04 155.441 900.276 158.522C900.373 159.795 901.026 161.776 900.643 163.138C900.061 165.2 899.378 167.274 898.747 169.339" stroke="#0B6F72" stroke-width="16" stroke-linecap="round"/>
<path opacity="0.8" d="M180.848 254.15C176.442 254.479 173.137 258.317 173.466 262.723C173.795 267.129 177.633 270.434 182.039 270.105L180.848 254.15ZM956.078 219.685L962.349 214.718L959.823 211.529L955.758 211.691L956.078 219.685ZM969 236L962.729 240.967C964.371 243.04 966.931 244.168 969.569 243.98C972.207 243.792 974.581 242.312 975.912 240.027L969 236ZM1002.5 178.5L1009.56 174.747C1008.2 172.183 1005.56 170.558 1002.66 170.502C999.754 170.445 997.049 171.964 995.588 174.473L1002.5 178.5ZM1019.5 210.5L1012.44 214.253L1014.92 218.926L1020.19 218.47L1019.5 210.5ZM1130.19 208.97C1134.59 208.59 1137.85 204.714 1137.47 200.312C1137.09 195.91 1133.21 192.65 1128.81 193.03L1130.19 208.97ZM181.444 262.128L182.039 270.105C439.703 250.868 698.159 237.994 956.397 227.678L956.078 219.685L955.758 211.691C697.424 222.01 438.766 234.894 180.848 254.15L181.444 262.128ZM956.078 219.685L949.806 224.652L962.729 240.967L969 236L975.271 231.033L962.349 214.718L956.078 219.685ZM969 236L975.912 240.027L1009.41 182.527L1002.5 178.5L995.588 174.473L962.088 231.973L969 236ZM1002.5 178.5L995.435 182.253L1012.44 214.253L1019.5 210.5L1026.56 206.747L1009.56 174.747L1002.5 178.5ZM1019.5 210.5L1020.19 218.47L1130.19 208.97L1129.5 201L1128.81 193.03L1018.81 202.53L1019.5 210.5Z" fill="#0B6F72"/>
<path opacity="0.5" d="M19.8984 321.024C212.333 297.578 404.666 273.289 597.275 251.283C670.863 242.875 747.794 231.566 822.578 230.155" stroke="#0B6F72" stroke-width="16" stroke-linecap="round"/>
<path opacity="0.2" d="M706.238 268.897C843.712 262.649 981.487 251.327 1119.14 251.327" stroke="#0B6F72" stroke-width="16" stroke-linecap="round"/>
<path opacity="0.1" d="M827 284.252C835.776 281.444 844.195 282.056 853.356 282.056" stroke="#0B6F72" stroke-width="16" stroke-linecap="round"/>
</mask>
<g mask="url(#mask0_164_48)">
<rect width="1183" height="332" fill="url(#paint0_linear_164_48)"/>
<rect width="1183" height="332" fill="#0B6F72"/>
</g>
<defs>
<linearGradient id="paint0_linear_164_48" x1="605.162" y1="145.782" x2="644.002" y2="272.425" gradientUnits="userSpaceOnUse">
<stop stop-color="#0B6F72"/>
<stop offset="1" stop-color="#BBC7C8"/>
</linearGradient>
</defs>
</svg>
