<svg width="100" height="100" viewBox="0 0 100 100" fill="none" xmlns="http://www.w3.org/2000/svg">
<path d="M10.0071 66.3743L10.9052 61.9933L22.205 55.8642L40.4301 50.4701L57.9202 52.0013L60.1852 64.335L46.5996 71.5933L36.0073 76.4978L33.7215 77.627L13.5239 73.7147L11.5579 72.1704L10.0071 66.3743Z" fill="#94DBEA"/>
<path d="M64.8125 50.1645L70.4375 52.0106L71 56.9337L69.875 57.5491L67.625 58.1645L63.125 56.3183L62 54.4722L63.6875 51.3952L64.8125 50.1645Z" fill="#94DBEA"/>
<path d="M11.0066 61.5584C8.328 61.9279 15.827 59.1022 18.2931 57.9932C24.0261 55.415 29.8303 53.2871 35.8978 51.64C37.566 51.1872 39.8748 50.2705 41.7138 50.3418C46.7156 50.5356 51.7644 50.8868 56.7348 51.4814C57.2019 51.5372 57.3747 51.5456 57.5522 52.05C58.447 54.5942 58.8446 57.3913 59.3473 60.0274C59.4726 60.6847 60.4585 63.8467 60.1884 64.7439C59.9879 65.4099 59.0073 65.4872 58.373 65.7726C54.8249 67.3692 55.6802 66.8972 51.6479 68.8482C46.5442 71.3177 41.5044 73.9416 36.5196 76.643C35.3918 77.2542 35.0135 77.7415 33.7799 77.5661C30.2098 77.0586 26.702 76.1253 23.1527 75.4953C20.195 74.9703 18.5065 74.7373 15.5944 74.3409C14.5388 74.1972 13.3991 74.3292 12.4312 73.8841C11.3875 73.4041 11.141 69.6934 10.935 68.7998C10.7174 67.856 10.5235 66.9943 10.5086 66.0901" stroke="#0E6578" stroke-width="3" stroke-linecap="round"/>
<path d="M66 61.6645L47.5 65.1645V75.6645L49 79.6645L52.5 83.1645L55.5 84.1645L71.5 83.1645L84.5 81.6645L85.5 78.6645L86.5 66.6645L84.5 65.1645L78 61.6645H66Z" fill="#94DBEA"/>
<path d="M46.9109 64.8096C55.4912 62.2355 64.9054 61.431 73.8216 61.072C77.6254 60.9188 81.1512 62.8802 84.4442 64.5997C85.2529 65.022 86.3538 65.3494 86.4245 66.4095C86.6763 70.1863 85.827 74.2432 85.6639 78.0288C85.5995 79.5217 86.1365 81.2096 84.2737 81.9238C82.3479 82.6622 74.9562 82.8593 73.9921 82.9205C68.3682 83.2774 62.6972 83.5628 57.127 84.468C54.3298 84.9225 51.4455 82.0048 49.6125 80.2452C46.1769 76.9469 47.6704 71.2772 47.8552 66.9341" stroke="#0E6578" stroke-width="3" stroke-linecap="round"/>
<path d="M58.4689 72.2037C67.4736 71.6089 76.2655 69.8617 84.9833 67.5718" stroke="#0E6578" stroke-width="2" stroke-linecap="round"/>
<path d="M19 75.6645L22.5 71.1645L24 72.6645L29 75.1645V78.6645L27 81.6645L21 80.1645L17.5 78.6645L19 75.6645Z" fill="#94DBEA"/>
<path d="M58.2795 74.361C57.5938 77.7609 57.2535 81.2245 56.8519 84.6661" stroke="#0E6578" stroke-width="2" stroke-linecap="round"/>
<path d="M75.7756 67.2262C75.0734 66.8554 74.3671 66.5076 73.6521 66.1645" stroke="#0E6578" stroke-width="3" stroke-linecap="round"/>
<path d="M61.6544 68.288C60.8027 67.7638 59.9019 67.3372 59 66.9077" stroke="#0E6578" stroke-width="3" stroke-linecap="round"/>
<path d="M64.3471 65.4462C64.5172 65.0185 64.7241 64.3934 65.2668 64.4227C66.038 64.4644 66.7986 64.5548 67.5732 64.5548" stroke="#0E6578" stroke-width="2" stroke-linecap="round"/>
<path d="M56.4044 71.2605C55.3719 70.5611 54.2676 69.9656 53.217 69.2928C53.0113 69.1611 52.8091 69.0123 52.5991 68.8863" stroke="#0E6578" stroke-width="2" stroke-linecap="round"/>
<path d="M34.3651 73.7456C33.8249 71.009 33.455 68.2476 33.0539 65.4882" stroke="#0E6578" stroke-width="2" stroke-linecap="round"/>
<path d="M32.9978 65.2787L33.0116 65.0504" stroke="#0E6578" stroke-width="2" stroke-linecap="round"/>
<path d="M34.3615 63.9407C39.4065 61.4818 44.7861 59.6619 49.5542 56.6568" stroke="#0E6578" stroke-width="2" stroke-linecap="round"/>
<path d="M13.0928 63.3438C17.7062 63.9852 22.3536 64.1871 27.0023 64.4127" stroke="#0E6578" stroke-width="2" stroke-linecap="round"/>
<path d="M63.1664 79.7216C64.221 82.1735 65.1575 84.8331 66.7386 86.9891" stroke="#0E6578" stroke-width="2" stroke-linecap="round"/>
<path d="M23.1646 71.2321C22.3798 71.8252 21.7783 72.4688 21.156 73.2408C20.4631 74.1002 19.6998 75.1337 19.0509 76.0207C18.7593 76.4193 17.8814 77.5704 17.6208 78.1458C17.2261 79.0171 18.5205 79.2677 19.0831 79.4916C19.3238 79.5874 22.9952 80.9557 23.0119 80.9619C23.0878 80.9899 26.2071 82.1407 26.5953 82.2233C27.8983 82.5008 27.9779 81.3059 28.2665 80.3513C28.7031 78.9072 29.2546 77.4397 29.548 75.9564C29.654 75.4203 27.9358 74.5409 27.8648 74.4941C25.7617 73.1098 23.597 71.8534 21.4291 70.5813" stroke="#0E6578" stroke-width="2" stroke-linecap="round"/>
<path d="M65.2407 50.0751C66.9702 50.2329 68.7207 50.9631 70.2618 51.6325C70.7655 52.5773 71.394 55.0816 69.8781 57.5406C69.3981 57.6966 68.8897 57.7016 68.3983 57.7064L68.3961 57.7065C66.9012 57.7211 65.0023 57.7831 63.8634 56.7845C62.8908 55.9317 62.4258 54.1159 62.6924 52.7738C62.8258 52.1024 63.2382 51.7207 63.7174 51.2203C64.0988 50.822 64.6384 50.0202 65.2407 50.0751Z" stroke="#0E6578" stroke-width="2" stroke-linecap="round"/>
<path d="M16.7192 70.1889C16.3703 71.5736 16.0723 72.8241 14.9725 73.8341C13.9874 74.7388 12.7397 75.1508 11.4685 75.4501C11.2565 75.5001 11.04 75.529 10.8252 75.5652C10.7149 75.5838 10.5481 75.6873 10.4905 75.5913C10.4737 75.5633 10.5861 75.4749 10.6003 75.4606" stroke="#0E6578" stroke-width="2" stroke-linecap="round"/>
<path d="M10.6003 75.4606L11.2593 75.1782" stroke="#0E6578" stroke-width="2" stroke-linecap="round"/>
<path d="M15.5896 71.0362C14.9553 72.695 14.7192 74.6216 14.5593 76.381C14.5236 76.7737 14.6031 77.1737 14.4599 77.5316" stroke="#0E6578" stroke-width="2" stroke-linecap="round"/>
<path d="M14.0834 77.7199C13.7837 78.4535 13.4163 78.9018 13.8115 79.7281C14.488 81.1426 15.1508 80.8043 16.1544 82.0502" stroke="#0E6578" stroke-width="2" stroke-linecap="round"/>
<path d="M37 70.1131C37.7876 69.5195 38.6198 71.4673 39.4691 71.2494C41.1538 70.8172 41.4924 72.1499 41.179 74.8843C40.9867 76.5623 40.8213 79.2422 40.1605 80.5964C39.6571 81.6279 37.4288 82.8473 37.5926 84.5296C37.6914 85.544 38.5872 85.9261 39.037 85.988C39.8596 86.1013 39.9573 85.3983 40.4012 84.3971C40.9888 83.0719 41.8804 82.428 42.6173 81.425C43.2085 80.6203 43.6314 79.6945 44 78.5635" stroke="#0E6578" stroke-width="2" stroke-linecap="round"/>
<path d="M44 77.6787C44.5135 77.5075 45.2677 76.8529 45.8304 77.0302C46.0228 77.0908 46.0738 77.4326 46.2227 77.5532C46.5977 77.8567 46.9701 77.6465 47.3889 77.6787" stroke="#0E6578" stroke-width="2" stroke-linecap="round"/>
<path d="M52.1385 57.1932C52.0193 57.5439 51.884 57.9684 51.9121 58.3436C51.9623 59.0164 52.9181 58.9253 53.3795 58.9686C54.2371 59.0492 54.7994 59.2267 55.2093 60.0466C55.4825 60.5929 55.6393 61.2525 55.8072 61.8402" stroke="#0E6578" stroke-width="2" stroke-linecap="round"/>
</svg>
