<svg width="100" height="100" viewBox="0 0 100 100" fill="none" xmlns="http://www.w3.org/2000/svg">
<path d="M33.3758 51.1476L73.4078 54.6867V83H33.3758V51.1476Z" fill="#94DBEA"/>
<path d="M30.9407 30.3768L73.8225 38.267L72.0675 56.161L29.1857 48.2708L30.9407 30.3768Z" fill="#94DBEA"/>
<path d="M66.7194 59.2058C67.168 60.498 67.1798 61.961 67.2538 63.3108" stroke="#0E6578" stroke-width="3" stroke-linecap="round"/>
<path d="M20.629 55.2939L44.9908 60.1677L67.3224 55.2939L62.247 77.7136H47.0209L22.6592 66.0164L20.629 55.2939Z" fill="#E1F3F7"/>
<rect x="16.5688" y="61.1425" width="10.1507" height="7.79817" fill="#94DBEA"/>
<rect width="11.32" height="9.11221" transform="matrix(0.984135 -0.177424 0.191868 0.981421 61.2319 65.3676)" fill="#94DBEA"/>
<path d="M20.629 53.3443C31.2797 55.7671 31.8373 57.0628 42.6219 59.0335C46.1727 59.6823 50.8661 58.1642 54.4953 57.8028C56.6575 57.5875 58.7931 56.9733 60.885 56.4952C62.2625 56.1805 66.6696 55.8176 67.3224 54.7646" stroke="#0E6578" stroke-width="3" stroke-linecap="round"/>
<path d="M69.905 62.4757C67.7319 62.8235 65.5965 63.7388 63.61 64.6153C62.7882 64.9779 61.4512 65.3784 60.8161 66.0586C59.791 67.1566 60.7574 69.9421 61.0283 71.1019C61.7752 74.2994 62.0829 74.7704 65.3429 74.3791C66.4628 74.2447 71.6289 74.4474 72.133 73.4791" stroke="#0E6578" stroke-width="4" stroke-linecap="round"/>
<path d="M15.1596 63.6984C15.1596 64.9171 14.6391 67.7089 15.4779 68.6906C16.6661 70.0813 21.7279 69.6577 23.4351 69.8114" stroke="#0E6578" stroke-width="4" stroke-linecap="round"/>
<path d="M17.3877 61.2532C18.9439 60.9955 25.7024 58.4983 26.2997 60.506C26.7709 62.0897 26.9363 63.885 26.9363 65.5323" stroke="#0E6578" stroke-width="4" stroke-linecap="round"/>
<path d="M18.8628 55.6544C19.5186 56.9855 20.257 58.1596 21.0576 59.4014" stroke="#0E6578" stroke-width="3" stroke-linecap="round"/>
<path d="M33.2414 72.4124C36.0182 74.6465 40.1115 75.764 43.5076 76.7286C46.0518 77.4513 48.6713 77.8881 51.2202 78.5927C52.4283 78.9267 53.1774 78.793 54.4797 78.5429C57.1416 78.0316 59.7478 77.3041 62.3896 76.7187" stroke="#0E6578" stroke-width="3" stroke-linecap="round"/>
<path d="M41.4774 64.4174C42.7238 66.1529 44.8344 67.3669 46.7424 68.3146" stroke="#0E6578" stroke-width="3" stroke-linecap="round"/>
<path d="M30.9447 29.274C41.2622 30.7923 51.6025 32.5117 61.8839 34.261C65.4152 34.8619 68.7905 35.6708 72.1824 36.8109C72.6763 36.9769 75.0051 37.2852 74.948 38.2017C74.6116 43.5965 73.2784 49.0033 72.6216 54.3762C72.4952 55.4104 72.6774 56.2428 71.4941 56.1084C66.3075 55.5195 61.1896 54.089 56.0023 53.3971C51.335 52.7746 46.6445 52.3584 41.9574 51.911C40.6728 51.7884 39.0468 51.8163 37.7932 51.3186C35.204 50.2907 32.6356 49.2466 30.004 48.3329C28.5646 47.8331 28.0428 48.2091 28.2189 46.4143C28.6388 42.1331 29.1621 37.8671 29.7365 33.6039" stroke="#0E6578" stroke-width="4" stroke-linecap="round"/>
<path d="M42.8133 39.1095C42.5074 40.5664 42.1352 42.0297 41.9898 43.5125C41.9628 43.7873 42.0182 44.2968 41.7977 44.4721" stroke="#0E6578" stroke-width="3" stroke-linecap="round"/>
<path d="M57.2 42.1975C56.8044 42.6158 56.8618 43.7747 56.8056 44.2777C56.7055 45.1725 56.6335 46.0699 56.5366 46.965C56.5074 47.2345 56.1166 48.2514 56.1296 48.1194" stroke="#0E6578" stroke-width="3" stroke-linecap="round"/>
<path d="M61.6784 30.5619C60.5681 28.8221 60.5513 26.4198 60.3113 24.4686" stroke="#0E6578" stroke-width="3" stroke-linecap="round"/>
<path d="M55.1415 23.996C58.0327 22.7102 60.9621 21.4753 63.9425 20.3924C64.8557 20.0606 65.7734 19.7824 66.7057 19.5109C67.211 19.3637 66.8353 19.4828 66.9397 19.3164" stroke="#0E6578" stroke-width="3" stroke-linecap="round"/>
<path d="M74.5516 55.541C74.5516 61.4338 74.3675 67.2541 73.5935 73.1169C73.283 75.4691 73.1046 77.9013 72.5377 80.224C72.4857 80.4371 72.3736 80.6203 72.264 80.8033" stroke="#0E6578" stroke-width="4" stroke-linecap="round"/>
<path d="M31.0882 81.9017C36.2331 82.5782 41.6584 82.555 46.8952 82.7074C53.8244 82.9091 60.7511 83.0557 67.6889 82.9796" stroke="#0E6578" stroke-width="4" stroke-linecap="round"/>
<path d="M67.6889 83C68.807 82.574 69.9947 82.3134 71.1203 81.9017" stroke="#0E6578" stroke-width="4" stroke-linecap="round"/>
<path d="M33.3758 76.4099C32.9586 77.5078 32.5997 78.6062 32.232 79.7049" stroke="#0E6578" stroke-width="4" stroke-linecap="round"/>
<path d="M32.701 59.4799C32.7781 57.7025 33.1443 55.9517 33.5314 54.2167" stroke="#0E6578" stroke-width="3" stroke-linecap="round"/>
<path d="M49.3886 48.9865C50.288 48.8662 51.1653 49.0745 52.0442 49.2503" stroke="#0E6578" stroke-width="2" stroke-linecap="round"/>
<path d="M72.0347 78.2112C72.4576 78.6709 73.2977 79.0061 74 79.2343C75.3733 79.6806 77.5574 80.1381 78.5069 81C80.0815 82.4292 80.4851 83.1474 78.5069 84.4321C77.7949 84.8944 76.3605 85.2104 75.5057 84.8319" stroke="#0E6578" stroke-width="3" stroke-linecap="round"/>
<path d="M74.7411 84.2941C74.7165 84.4175 74.7302 84.5641 74.7365 84.6856C74.7496 84.9394 74.7611 85.2095 74.8455 85.4521C74.8938 85.591 74.9678 85.7187 75.0576 85.8342" stroke="#0E6578" stroke-width="3" stroke-linecap="round"/>
</svg>
